<?xml version="1.0" standalone="no"?>
<!DOCTYPE svg PUBLIC "-//W3C//DTD SVG 20010904//EN"
 "http://www.w3.org/TR/2001/REC-SVG-20010904/DTD/svg10.dtd">
<svg version="1.0" xmlns="http://www.w3.org/2000/svg"
 width="500.000000pt" height="500.000000pt" viewBox="0 0 500.000000 500.000000"
 preserveAspectRatio="xMidYMid meet">
<metadata>
Created by potrace 1.11, written by Peter Selinger 2001-2013
</metadata>
<g transform="translate(0.000000,500.000000) scale(0.100000,-0.100000)"
fill="#000000" stroke="none">
<path d="M2576 4259 c-122 -29 -236 -131 -282 -254 -38 -103 -26 -235 30 -336
45 -81 147 -161 236 -187 42 -13 185 -10 233 5 98 29 188 108 237 208 43 88
53 170 30 265 -19 79 -47 128 -110 190 -100 101 -238 141 -374 109z"/>
<path d="M140 3330 c-12 -8 -9 -1834 3 -1885 94 -377 362 -636 727 -700 75
-13 343 -14 405 -1 139 30 282 89 357 148 l37 29 63 -47 c115 -85 230 -124
375 -129 51 -1 114 2 140 7 27 4 62 11 78 14 80 14 258 94 318 143 171 139
254 252 315 426 51 144 51 138 52 1104 l1 904 -74 -7 c-40 -3 -87 -10 -105
-15 -18 -5 -32 -8 -32 -6 0 2 -35 -9 -78 -24 -131 -45 -226 -105 -334 -213
-54 -53 -98 -101 -98 -107 0 -5 -7 -16 -15 -24 -26 -27 -94 -173 -114 -248
-33 -119 -34 -149 -35 -670 -1 -405 -4 -499 -15 -512 -18 -23 -76 -22 -87 1
-4 9 -9 417 -10 907 -1 490 -3 895 -3 902 -1 16 -105 7 -211 -19 -157 -38
-311 -127 -424 -244 -55 -57 -134 -171 -160 -229 -9 -22 -21 -48 -26 -57 -5
-9 -19 -52 -32 -95 -21 -75 -22 -98 -28 -616 l-5 -539 -22 -18 c-25 -20 -55
-17 -75 8 -10 12 -13 128 -15 531 -1 284 -3 523 -6 531 -2 8 -7 33 -11 55 -16
85 -95 273 -118 283 -4 2 -8 8 -8 14 0 6 -25 41 -55 77 -141 173 -330 281
-555 316 -56 9 -110 11 -120 5z"/>
<path d="M3140 3331 c-14 -5 -16 -103 -15 -921 2 -956 1 -940 47 -1080 74
-229 252 -422 488 -529 37 -16 140 -51 140 -46 0 2 15 -1 32 -6 18 -5 66 -12
105 -15 l73 -6 0 434 0 435 27 -2 c93 -5 284 48 392 107 31 17 58 34 61 37 3
4 18 15 35 25 46 30 123 105 171 168 100 130 169 306 179 458 l6 76 -427 0
c-234 -1 -430 1 -435 4 -5 3 -11 33 -14 65 -40 412 -368 746 -777 790 -29 4
-57 8 -63 9 -5 2 -17 0 -25 -3z"/>
</g>
</svg>
