<?xml version="1.0" encoding="utf-8"?>
<!-- Generator: Adobe Illustrator 21.0.0, SVG Export Plug-In . SVG Version: 6.00 Build 0)  -->
<svg version="1.1" id="Layer_1" xmlns="http://www.w3.org/2000/svg" xmlns:xlink="http://www.w3.org/1999/xlink" x="0px" y="0px"
	 viewBox="0 0 619.9 921.4" style="enable-background:new 0 0 619.9 921.4;" xml:space="preserve">
<style type="text/css">
	.st0{opacity:0.41;fill:#F9E8C2;}
	.st1{fill:#FFFFFF;}
	.st2{fill:#F7F0ED;}
	.st3{fill:none;stroke:#FFF0CF;stroke-width:10.7956;stroke-linecap:round;stroke-miterlimit:10;}
	.st4{fill:#74A5A5;stroke:#640917;stroke-width:1.7993;stroke-linecap:round;stroke-miterlimit:10;}
	.st5{fill:#548E8C;stroke:#640917;stroke-width:1.7993;stroke-linecap:round;stroke-miterlimit:10;}
	.st6{fill:#C0DFE2;stroke:#640917;stroke-width:1.7993;stroke-linecap:round;stroke-miterlimit:10;}
	.st7{fill:#9DC4C4;}
	.st8{fill:none;stroke:#640917;stroke-width:1.7993;stroke-linecap:round;stroke-miterlimit:10;}
	.st9{fill:#A1C2C4;}
	.st10{fill:#74A5A5;}
	.st11{fill:none;stroke:#FFBF40;stroke-width:8.0967;stroke-miterlimit:10;}
	.st12{fill:none;stroke:#FFBF40;stroke-width:8.0967;stroke-linecap:round;stroke-miterlimit:10;}
	.st13{fill:#FFEDD9;}
	.st14{fill:#E2F7F5;stroke:#640917;stroke-width:1.7993;stroke-linecap:round;stroke-miterlimit:10;}
	.st15{fill:none;stroke:#FFFFFF;stroke-width:23.3904;stroke-linecap:round;stroke-miterlimit:10;}
	.st16{fill:#F7F0ED;stroke:#640917;stroke-width:1.7993;stroke-miterlimit:10;}
	.st17{fill:#CE937C;stroke:#640917;stroke-width:1.7993;stroke-miterlimit:10;}
	.st18{fill:#FFFFFF;stroke:#640917;stroke-width:1.7993;stroke-linecap:round;stroke-miterlimit:10;}
	.st19{fill:#FFEDD9;stroke:#640917;stroke-width:1.7993;stroke-linecap:round;stroke-miterlimit:10;}
	.st20{fill:#E25959;}
	.st21{fill:#D34242;}
	.st22{fill:#E25959;stroke:#640917;stroke-width:1.7993;stroke-linecap:round;stroke-miterlimit:10;}
	.st23{fill:#640917;stroke:#630B18;stroke-width:1.7993;stroke-miterlimit:10;}
	.st24{fill:#FCD3B6;stroke:#640917;stroke-width:1.7993;stroke-linecap:round;stroke-miterlimit:10;}
	.st25{fill:#FCD3B6;}
	.st26{fill:#FFF3E4;stroke:#640917;stroke-width:1.7993;stroke-linecap:round;stroke-miterlimit:10;}
	.st27{fill:#640917;stroke:#640917;stroke-width:1.7993;stroke-linecap:round;stroke-miterlimit:10;}
	.st28{fill:#891F38;stroke:#640917;stroke-width:1.7993;stroke-linecap:round;stroke-miterlimit:10;}
	.st29{opacity:0.41;fill:#E5B683;}
	.st30{fill:#CE937C;}
	.st31{fill:#DBAA94;}
	.st32{fill:none;stroke:#640917;stroke-width:1.7993;stroke-miterlimit:10;}
	.st33{fill:#CE937C;stroke:#640917;stroke-width:1.7993;stroke-linecap:round;stroke-miterlimit:10;}
	.st34{fill:none;stroke:#FFF0CF;stroke-width:3.5985;stroke-linecap:round;stroke-miterlimit:10;}
	.st35{fill:#CE937C;stroke:#CE937C;stroke-width:1.7993;stroke-miterlimit:10;}
	.st36{fill:#891F38;stroke:#64121A;stroke-width:1.7993;stroke-miterlimit:10;}
	.st37{fill:#64121B;stroke:#64121A;stroke-width:1.7993;stroke-miterlimit:10;}
	.st38{fill:#891F38;stroke:#64121A;stroke-width:1.7993;stroke-linecap:round;stroke-miterlimit:10;}
	.st39{fill:#64121A;}
	.st40{fill:#D85656;stroke:#640917;stroke-width:1.7993;stroke-linecap:round;stroke-miterlimit:10;}
	.st41{fill:#F27575;stroke:#640917;stroke-width:1.7993;stroke-linecap:round;stroke-linejoin:round;stroke-miterlimit:10;}
	.st42{fill:#C63E3E;stroke:#640917;stroke-width:1.7993;stroke-linecap:round;stroke-miterlimit:10;}
	.st43{fill:#F27575;stroke:#751225;stroke-width:6.2974;stroke-linecap:round;stroke-miterlimit:10;}
	.st44{fill:#F27575;stroke:#640917;stroke-width:6.2974;stroke-linecap:round;stroke-miterlimit:10;}
	.st45{fill:#640917;}
</style>
<g>
	<path id="XMLID_407_" class="st0" d="M397.1,445.4L397.1,445.4c22.2-27.7,35.5-62.9,35.5-101.2c0-89.4-72.5-161.9-161.9-161.9
		s-161.9,72.5-161.9,161.9c0,38.3,13.3,73.5,35.5,101.2l0,0v0c2.7,3.3,5.5,6.5,8.4,9.7l7.1,8.1c21.3,24.5,35.6,53.9,41.8,85.3
		c2.3,11.7,136.1,11,138.6-1.1c6.3-31,20.5-60,41.5-84.2l7.1-8.1C391.6,452,394.4,448.7,397.1,445.4L397.1,445.4z"/>
	<g id="XMLID_1459_">
		<path id="XMLID_17_" class="st1" d="M232.2,119c0,0-2-23.5,6.3-29.4c8.3-5.9,11.9-9.1,20.7-7.8c8.8,1.3,21.4,14.7,21.4,14.7
			l-1.4,15.8l-4,8.9l-13.9,5.8l-18.1,6.6L232.2,119z"/>
		<ellipse id="XMLID_295_" class="st2" cx="274.1" cy="708.6" rx="80.1" ry="20.2"/>
		<g id="XMLID_374_">
			<g id="XMLID_391_">
				<line id="XMLID_393_" class="st3" x1="368" y1="518.4" x2="383.9" y2="545.9"/>
				<line id="XMLID_395_" class="st3" x1="428.3" y1="441" x2="466.6" y2="463.1"/>
				<line id="XMLID_397_" class="st3" x1="453.6" y1="350" x2="496.9" y2="350"/>
				<line id="XMLID_398_" class="st3" x1="432.7" y1="256.5" x2="466.6" y2="237"/>
				<line id="XMLID_399_" class="st3" x1="366.2" y1="184.9" x2="383.9" y2="154.2"/>
				<line id="XMLID_400_" class="st3" x1="270.8" y1="162.3" x2="270.8" y2="123.9"/>
				<line id="XMLID_401_" class="st3" x1="177.1" y1="187.8" x2="157.7" y2="154.2"/>
				<line id="XMLID_402_" class="st3" x1="113.3" y1="259.1" x2="75" y2="237"/>
				<line id="XMLID_404_" class="st3" x1="86.9" y1="350" x2="44.7" y2="350"/>
				<line id="XMLID_405_" class="st3" x1="113.3" y1="441" x2="75" y2="463.1"/>
				<line id="XMLID_406_" class="st3" x1="172.5" y1="520.2" x2="157.7" y2="545.9"/>
			</g>
		</g>
		<path id="XMLID_457_" class="st4" d="M270.7,668.7L270.7,668.7c-13.7,0-24.9-11.1-24.9-24.9v-19.5h49.8v19.5
			C295.6,657.6,284.4,668.7,270.7,668.7z"/>
		<g id="XMLID_296_">
			<path id="XMLID_387_" class="st5" d="M339.9,549.9c-3.2,0-5.9-2.2-6.6-5.2c-4.1-3.3-26.1-9-63.1-9c-36.9,0-58.9,5.8-63.1,9
				c-0.7,3-3.4,5.2-6.6,5.2c-3.7,0-6.7-3-6.7-6.7c0-10.1,13.8-14.2,25.8-16.7c13.6-2.8,31.6-4.3,50.6-4.3c19,0,37,1.5,50.6,4.3
				c12,2.5,25.8,6.6,25.8,16.7C346.7,546.9,343.7,549.9,339.9,549.9z"/>
		</g>
		<path id="XMLID_396_" class="st6" d="M339.5,544.3v54.9c0,1.5-0.1,2.9-0.2,4.4c-0.4,5.2-1.6,10.3-3.4,15c-1.3,3.3-2.8,6.5-4.7,9.5
			c-3.3,5.3-7.5,10.1-12.4,14c-9.3,7.4-21.2,11.9-34,11.9h-28.3c-19,0-35.7-9.7-45.5-24.4l-0.4-0.5c-3.1-4.8-5.5-10.1-7-15.7
			c-0.1-0.2-0.1-0.5-0.2-0.7c-0.8-3.1-1.3-6.2-1.5-9.5c-0.1-1.3-0.1-2.5-0.1-3.8v-54.9H339.5z"/>
		<g id="XMLID_380_">
			<path id="XMLID_385_" class="st7" d="M339.1,566.4v16.9c-10.4,6-31.7,9-64.6,9c-37.6,0-62.1-3.8-73-11.4v-14
				c3.9,4.8,18.3,14.6,73,14.6C341.4,581.5,337.7,568.6,339.1,566.4z"/>
		</g>
		<g id="XMLID_382_">
			<path id="XMLID_383_" class="st7" d="M339.1,588.4v16.9c-10.4,6-31.7,9-64.6,9c-37.6,0-62.1-3.8-73-11.4v-14
				c3.9,4.8,18.3,14.6,73,14.6C341.4,603.5,337.7,590.6,339.1,588.4z"/>
		</g>
		<g id="XMLID_384_">
			<path id="XMLID_394_" class="st7" d="M274.5,625.1v3c0,4.3-3.6,7.8-7.9,7.8c-25.3-0.4-44-2.7-56-6.9c-3.1-4.8-5.5-10.1-7-15.7
				c-0.1-0.2-0.1-0.5-0.2-0.7C209.6,617.5,226.6,625.1,274.5,625.1z"/>
		</g>
		<g id="XMLID_378_">
			<path id="XMLID_381_" class="st7" d="M339.5,542.8v16.9c-10.4,6-31.7,9-64.6,9c-37.6,0-62.5-2.3-73.4-9.9l0.4-15.5
				c3.9,4.8,18.3,14.6,73,14.6C341.8,557.9,338.1,545,339.5,542.8z"/>
		</g>
		<path id="XMLID_389_" class="st7" d="M339.1,584.1v15.1c0,1.5-0.1,2.9-0.2,4.4c-0.4,5.2-1.6,10.3-3.4,15c-1.3,3.3-2.8,6.5-4.7,9.5
			c-3.3,5.3-7.5,10.1-12.4,14c-9.3,7.4-21.2,11.9-34,11.9h-28.3c-19,0-35.7-9.7-45.5-24.4c-3.3-4.9-5.8-10.4-7.3-16.2
			c-0.9-3.3-1.4-6.7-1.7-10.2c-0.1-1.3-0.1-2.5-0.1-3.8v-15.1c0,1.3,0,2.6,0.1,3.8c0.2,3.5,0.8,6.9,1.7,10.2
			c1.5,5.9,4,11.3,7.3,16.2c9.8,14.7,26.5,24.4,45.5,24.4h28.3c12.9,0,24.7-4.4,34-11.9c4.9-3.9,9.1-8.6,12.4-14
			c1.9-3,3.4-6.1,4.7-9.5c1.8-4.7,3-9.8,3.4-15C339.1,587,339.1,585.5,339.1,584.1z"/>
		<path id="XMLID_458_" class="st8" d="M339.5,544.3v54.9c0,1.5-0.1,2.9-0.2,4.4c-0.4,5.2-1.6,10.3-3.4,15c-1.3,3.3-2.8,6.5-4.7,9.5
			c-3.3,5.3-7.5,10.1-12.4,14c-9.3,7.4-21.2,11.9-34,11.9h-28.3c-19,0-35.7-9.7-45.5-24.4c-3.3-4.9-5.8-10.4-7.3-16.2
			c-0.9-3.3-1.4-6.7-1.7-10.2c-0.1-1.3-0.1-2.5-0.1-3.8v-54.9H339.5z"/>
		<path id="XMLID_473_" class="st9" d="M229.3,530.6v25.2c-17.4-2.8-28.6-7.4-28.6-12.6C200.7,538,211.9,533.4,229.3,530.6z"/>
		<path id="XMLID_470_" class="st9" d="M270.8,527.5c11.1,0,25.3,1,34.7,2.1l-3.6,27.6c-9.4,1-19.9,1.6-31,1.6
			c-10.3,0-20.1-0.5-28.9-1.4l-6-27.7C244.7,528.8,260.5,527.5,270.8,527.5z"/>
		<path id="XMLID_475_" class="st9" d="M341,543.1c0,5-10.4,9.4-26.5,12.2v-24.5C330.6,533.8,341,538.2,341,543.1z"/>
		<path id="XMLID_472_" class="st10" d="M235.8,529.5l6.1,27.9c-4.5-0.4-8.7-1-12.6-1.6l-5.7-24.1
			C227.1,530.9,231.3,529.9,235.8,529.5z"/>
		<path id="XMLID_468_" class="st10" d="M318,531.6l-3.5,23.8c-3.9,0.7-8.1,1.3-12.6,1.8l3.8-27.7
			C310.2,529.9,314.1,530.9,318,531.6z"/>
		<path id="XMLID_484_" class="st11" d="M296.4,471.3"/>
		<path id="XMLID_465_" class="st12" d="M238.3,557.2l-26.9-135.4c-1.9-9.3,2.9-19,11.7-22.6c2.8-1.2,5.9-1.7,9.2-1.5
			c9.9,0.7,18,8.7,18.8,18.6c0.1,1.7,0.1,3.3-0.2,4.9c-0.8,5-7.2,6.9-10.5,3c-3-3.6-4.9-8.2-4.9-13.2c0-12.1,10.5-21.7,22.9-20.2
			c8.9,1.1,16.2,7.8,17.5,16.7c0.6,3.9,0,7.6-1.4,10.9c-2.1,5-9.3,4.7-11.2-0.3c-0.8-2.2-1.3-4.6-1.3-7.1c0-11.7,9.8-21,21.6-20.3
			c10.4,0.6,18.7,9.3,19,19.6c0.2,4.8-1.4,9.2-4,12.8c-3.1,4.2-9.7,2.8-10.9-2.3c-0.3-1.4-0.5-2.8-0.5-4.3c0-11.7,9.8-21,21.6-20.3
			c4.4,0.3,8.4,2,11.7,4.7c5.4,4.5,7.9,11.7,6.7,18.6l-21.1,128.9"/>
		<polygon id="XMLID_70_" class="st13" points="288.4,56.9 281.7,45.8 275.8,51.3 269.4,64.9 269.7,70.8 273.8,77.1 278.3,82.8 
			286,85.9 290,72.9 		"/>
		<g id="XMLID_307_">
			<path id="XMLID_311_" class="st14" d="M274.7,609.5c-41.6,0-67.1-4.7-76-14c-3.1-3.2-3.3-6.1-3.3-7.2c0.1-3,2.6-5.3,5.6-5.2
				c2.7,4.2,15,15.6,73.7,15.6c70.7,0,62.6-14.4,64.9-15.4c1.8-0.7,4.9,0,6.3,2.7c1.1,2.1,1.5,5.6-0.6,9.1
				C339.4,604.7,316.3,609.5,274.7,609.5z"/>
		</g>
		<g id="XMLID_315_">
			<path id="XMLID_316_" class="st14" d="M275.5,625.3c0,3-2.5,5.4-5.5,5.4c-38.3-0.4-62.1-5.1-70.6-14c-3.1-3.2-3.3-6.1-3.3-7.2
				c0.1-3,2.6-5.3,5.6-5.2c2.6,4.1,14.3,14.9,68.4,15.6C273.1,620,275.5,622.4,275.5,625.3L275.5,625.3z"/>
		</g>
		<g id="XMLID_312_">
			<path id="XMLID_375_" class="st14" d="M274.9,587.8c-41.6,0-67.1-4.7-76-14c-3.1-3.2-3.3-6.1-3.3-7.2c0.1-3,2.6-5.3,5.6-5.2
				c2.7,4.2,15,15.6,73.7,15.6c70.7,0,62.6-14.4,64.9-15.4c1.8-0.7,4.9,0,6.3,2.7c1.1,2.1,1.5,5.6-0.6,9.1
				C339.6,583.1,316.5,587.8,274.9,587.8z"/>
		</g>
		<g id="XMLID_376_">
			<path id="XMLID_377_" class="st4" d="M270.3,564.1c-19,0-37-1.5-50.6-4.3c-12-2.5-26.7-6.6-26.7-16.7c0-3.7,3-7.7,5.9-8
				c3.5,4.7,6.2,5.6,8.5,6.8c5.1,2.5,26,8.7,62.9,8.7c36.9,0,58.6-6.1,63.2-8.7c2.5-1.4,6.1-3.1,10-7.5c3.2,2.2,4.6,4.1,4.6,7.8
				c0,10.1-15.2,15.2-27.3,17.6C307.3,562.6,289.3,564.1,270.3,564.1z"/>
		</g>
		<path id="XMLID_379_" class="st15" d="M159.3,332.1c0-54.6,44.3-98.9,98.9-98.9"/>
		<path id="XMLID_386_" class="st8" d="M343.5,534.4c7.3-26.2,20.4-50.7,38.5-71.6l7.1-8.1c2.9-3.1,5.7-6.3,8.4-9.7v0l0,0
			c22.2-27.7,35.5-62.9,35.5-101.2c0-89.4-72.5-161.9-161.9-161.9c-89.4,0-161.9,72.5-161.9,161.9c0,38.3,13.3,73.5,35.5,101.2l0,0
			v0c2.7,3.3,5.5,6.5,8.4,9.7l7.1,8.1c18.2,21,31.4,45.7,38.6,72.1"/>
		<path id="XMLID_721_" class="st8" d="M220.7,112.3"/>
		<g id="XMLID_719_">
			<path id="XMLID_720_" class="st16" d="M312.2,147.9c-3.9,1.3-8.3-0.2-10.5-3.8l-22.4-36.4c-2.6-4.2-1.3-9.8,3-12.4
				c4.2-2.6,9.8-1.3,12.4,3l22.4,36.4c2.6,4.2,1.3,9.8-3,12.4C313.5,147.4,312.8,147.7,312.2,147.9z"/>
		</g>
		<path id="XMLID_718_" class="st17" d="M288,205.9h-39.1c-13,0-22-9.1-22-20.3l0-1.7h62.5L288,205.9z"/>
		<path id="XMLID_543_" class="st18" d="M265.5,80.7h8.5c8.9,0,16,7.2,16,16v22.7"/>
		<path id="XMLID_542_" class="st18" d="M290,107v74.5l-62.5,0c-0.3,0-0.6-0.3-0.6-0.6l4.1-45.6"/>
		<path id="XMLID_1413_" class="st8" d="M232.9,109.2c0-21.4,11.3-28.5,32.7-28.5h8.3c9,0,16.2,7.3,16.2,16.2v22.5"/>
		<polyline id="XMLID_2_" class="st8" points="290.1,107 290.1,181.4 227.6,181.4 		"/>
		<path id="XMLID_464_" class="st18" d="M283.8,93.3l1.1,8.3c0.1,0.8,1.1,0.9,1.5,0.3l6.4-12.3l-5.6-3.6L283.8,93.3z"/>
		<polyline id="XMLID_120_" class="st19" points="288.2,88.1 284.6,94.1 279.3,95.9 264.2,77.4 269.4,67.7 		"/>
		<g id="XMLID_708_">
			<path id="XMLID_712_" class="st20" d="M280.9,102.7h-2.5c-2.4,0-4.4-2-4.4-4.4v-1.2c0-2.4,2-4.4,4.4-4.4h2.5c2.4,0,4.4,2,4.4,4.4
				v1.2C285.3,100.7,283.3,102.7,280.9,102.7z"/>
			<path id="XMLID_711_" class="st21" d="M274.5,98.7c0.2-0.2,4.8-2.8,4.8-2.8l5.6,2.6l0.5-3l-6.1-2.8l-5.3,2.8v3.4L274.5,98.7z"/>
			<path id="XMLID_710_" class="st8" d="M280.9,102.7h-2.5c-2.4,0-4.4-2-4.4-4.4v-1.2c0-2.4,2-4.4,4.4-4.4h2.5c2.4,0,4.4,2,4.4,4.4
				v1.2C285.3,100.7,283.3,102.7,280.9,102.7z"/>
			<polygon id="XMLID_709_" class="st22" points="283.3,102.4 276,102.4 269.3,162.9 279.3,172.7 289.4,162.9 			"/>
		</g>
		<path id="XMLID_611_" class="st18" d="M264.2,77.4c-1,0.4-7.5,4-7.5,4l14.6,21.1c0.5,0.7,1.5,0.6,1.8-0.2l4.1-11L264.2,77.4z"/>
		<path id="XMLID_704_" class="st23" d="M290.1,183.9h-62.9c-0.2,0-0.4-0.2-0.3-0.4l0.5-6.9h62.8V183.9z"/>
		<g id="XMLID_702_">
			<path id="XMLID_703_" class="st18" d="M310,149.1c-4-0.9-7-4.5-7-8.8l0-42.8c0-5,4-9,9-9c5,0,9,4,9,9l0,42.8c0,5-4,9-9,9
				C311.3,149.4,310.6,149.3,310,149.1z"/>
		</g>
		<polyline id="XMLID_463_" class="st24" points="302.9,85.5 303.2,105.8 321,105.7 321,87.8 		"/>
		<g id="XMLID_492_">
			<path id="XMLID_493_" class="st24" d="M312,94.9v-2.7c-0.4,0.4-1,0.5-1.6,0.5h-0.6c-2.7,0-5.1-1.9-5.5-4.6c-0.4-3.3,2.1-6,5.3-6
				h1.5c2.9,0,5.3,2.4,5.3,5.3v7.5 M309.7,86.6c-0.5,0-0.8,0.4-0.8,0.8c0,0.5,0.4,0.8,0.8,0.8h0.8c0.2,0,0.3,0,0.5,0
				c0.6,0.1,1.1,2.6,1.1,2v-2.8c0-0.5-0.4-0.8-0.8-0.8H309.7z"/>
		</g>
		<path id="XMLID_501_" class="st24" d="M303.4,88.3l-3.4-2.1c-1.2-0.8-1.6-2.3-0.8-3.6l0,0c0.7-1.2,2.3-1.6,3.5-0.8l5.5,3.7"/>
		<path id="XMLID_62_" class="st19" d="M281.8,85.5c6.7,7.1,19.5,9.2,28.9-2.3l13.1-17.5l1.8-2.4c4.1-5.5,3-13.4-2.5-17.5l-19-14.2
			c-5.5-4.1-13.4-3-17.5,2.5l-3.6,4.8"/>
		<path id="XMLID_690_" class="st19" d="M284.3,37.3l-10.1,13.6h0c-3.8,5-5.3,11.1-4.7,16.9"/>
		
			<rect id="XMLID_689_" x="311.1" y="65.2" transform="matrix(-0.8014 -0.5981 0.5981 -0.8014 527.6313 312.7699)" class="st25" width="9.2" height="7.3"/>
		<path id="XMLID_688_" class="st25" d="M296.7,59.1l3.7,2.8c1.9,1.4,4.5,1,5.9-0.9l1.8-2.5l-10.2-7.6l-2,2.7
			C294.6,55.3,294.9,57.8,296.7,59.1z"/>
		<path id="XMLID_65_" class="st8" d="M279.6,83.4c9.4,10.6,22.4,11.1,31.2-0.3l13.1-17.5l1.8-2.4c4.1-5.5,3-13.4-2.5-17.5l-19-14.2
			c-5.5-4.1-13.4-3-17.5,2.5l-3.6,4.8"/>
		<path id="XMLID_680_" class="st8" d="M284.3,37.2l-10.1,13.6l0,0c-3.8,5.1-5.3,11.1-4.7,17"/>
		<path id="XMLID_1477_" class="st25" d="M285.8,48.4l-6.4,8.6l-0.7,0.9c-2.9,4.2-4.2,9-4.2,13.7c0,0.5,0,1,0,1.4
			c0,0.3,0,0.6,0.1,0.9l-1.2,2.3l-4,7.3l-5.3-6.4l5.2-9.7l0.1,0.2l0-0.4l-0.1-2.6c0.1-4.6,1.5-9.2,4.2-13.3l0.6-0.8l8.6-11.5
			l0.2,0.6L285.8,48.4z"/>
		<path id="XMLID_677_" class="st8" d="M300.7,75.1c1.6,1.2,3.9,0.9,5.1-0.7l4.9-6.6"/>
		<path id="XMLID_676_" class="st26" d="M273.8,46.3"/>
		<path id="XMLID_675_" class="st27" d="M298.8,52.3l7.6,5.7c0.7,0.5,1.7,0.4,2.2-0.3l0,0c0.5-0.7,0.4-1.7-0.3-2.2l-7.6-5.7
			c-0.7-0.5-1.7-0.4-2.2,0.3l0,0C298,50.8,298.1,51.8,298.8,52.3z"/>
		<g id="XMLID_671_">
			<path id="XMLID_673_" class="st28" d="M291.5,20.5c1.3-1.7,3.6-2,5.3-0.8c0,0,0.1,0.1,0.1,0.1c0.5-1,1.3-2,2.4-2.7
				c2.1-1.3,4.7-1,6.6,0.4l0,0c1.3,1,2.2,2.5,2.4,4c2.8,0.7,5.5,1.9,8,3.7l30.7,22.9l-7.4,9.9c-4.1,5.5-11.9,6.6-17.3,2.5
				l-21.3-15.9c-3.1-2.3-7.3-2.1-10.2,0.4l-6.6,5.8c-2.2,1.9-5.6,0-5.1-2.9l-1.5-6.5l8.8-11.8c1.4-1.9,3.1-3.5,5-4.8
				C290.5,23.4,290.5,21.8,291.5,20.5z"/>
		</g>
		<path id="XMLID_670_" class="st27" d="M291.3,24.8c-1.9,1.3-3.6,2.9-5,4.8l-8.8,11.8L279,48c-0.2,1.4,0.4,2.6,1.4,3.2
			c0.3,0.2,0.8,0.1,1-0.2l11.9-16c1.4-1.9,8.3-12.4,14.9-13.4c-0.9,0.2,0.2,0,0,0c-0.1-0.8-0.4-1.5-0.8-2.2
			c-0.5-0.9-1.3-1.6-2.2-2.2c-1.3-0.8-2.9-0.9-4.4-0.6c-2.2,0.5-3.4,1.8-4.1,3.3c-0.2-0.1-0.1-0.2-1.7-0.6c-1.4-0.3-3,0.2-3.9,1.4
			C290.5,22,290.5,23.6,291.3,24.8z"/>
		<polygon id="XMLID_403_" class="st29" points="276.4,261.7 278.9,275.9 290.1,290.3 298.8,294.3 		"/>
		<polygon id="XMLID_612_" class="st29" points="326.2,259.5 328.6,273.8 339.1,290.1 348.5,292.2 		"/>
		<g id="XMLID_668_">
			<path id="XMLID_669_" class="st8" d="M291.5,20.5c1.3-1.7,3.6-2,5.3-0.8c0,0,0.1,0.1,0.1,0.1c0.5-1,1.3-2,2.4-2.7
				c2.1-1.3,4.7-1,6.6,0.4v0c1.3,1,2.2,2.5,2.4,4c2.8,0.7,5.5,1.9,8,3.7L347,48.1l-7.4,9.9c-4.1,5.5-11.9,6.6-17.3,2.5L301,44.7
				c-3.1-2.3-7.3-2.1-10.2,0.4l-6.6,5.8c-2.2,1.9-5.6,0-5.1-2.9l-1.5-6.5l8.8-11.8c1.4-1.9,3.1-3.5,5-4.8
				C290.5,23.5,290.6,21.8,291.5,20.5z"/>
		</g>
		<path id="XMLID_666_" class="st27" d="M315.2,64.5l4.8,3.6c0.7,0.5,1.7,0.4,2.2-0.3l0,0c0.5-0.7,0.4-1.7-0.3-2.2l-4.8-3.6
			c-0.7-0.5-1.7-0.4-2.2,0.3l0,0C314.3,63,314.5,64,315.2,64.5z"/>
		<path id="XMLID_657_" class="st24" d="M280.6,51.7c2-2.7,1.5-6.5-1.2-8.5c-2.7-2-6.5-1.5-8.5,1.2c-2,2.7-1.5,6.5,1.2,8.5
			c0.9,0.7,1.9,1,2.9,1.2"/>
		<path id="XMLID_644_" class="st26" d="M277.3,45.8c-1.1-0.8-2.6-0.6-3.5,0.5"/>
		<line id="XMLID_643_" class="st18" x1="302" y1="82.8" x2="296.6" y2="79.3"/>
		<g id="XMLID_632_">
			<path id="XMLID_635_" class="st30" d="M339.3,272.6c-5,0-9.5-3.3-10.9-8.4l-21.9-82.8l-14.7,23c-3.3,5.2-10.3,6.8-15.5,3.4
				c-5.2-3.3-6.8-10.3-3.4-15.5l23.1-36.2c3.3-5.2,9.5-8,15.6-7c6.1,1,11.1,5.4,12.7,11.4l25.9,97.9c1.6,6-2,12.2-8,13.7
				C341.2,272.5,340.3,272.6,339.3,272.6z"/>
		</g>
		
			<ellipse id="XMLID_486_" transform="matrix(0.1816 -0.9834 0.9834 0.1816 185.9342 347.2231)" class="st18" cx="301.6" cy="61.9" rx="3" ry="3"/>
		
			<ellipse id="XMLID_508_" transform="matrix(0.1816 -0.9834 0.9834 0.1816 187.619 368.9058)" class="st18" cx="315.5" cy="71.7" rx="3" ry="3"/>
		<path id="XMLID_620_" class="st31" d="M282.2,198.8l20.2-29.6c2.6-3.8,8.5-2.9,9.8,1.5l24.6,88.4l-10-0.9l-20.3-76.8l-17.2,27"/>
		<g id="XMLID_618_">
			<path id="XMLID_619_" class="st32" d="M339.3,272.6c-5,0-9.5-3.3-10.9-8.4l-21.9-82.8l-14.7,23c-3.3,5.2-10.3,6.8-15.5,3.4
				c-5.2-3.3-6.8-10.3-3.4-15.5l23.1-36.2c3.3-5.2,9.5-8,15.6-7c6.1,1,11.1,5.4,12.7,11.4l25.9,97.9c1.6,6-2,12.2-8,13.7
				C341.2,272.5,340.3,272.6,339.3,272.6z"/>
		</g>
		<path id="XMLID_614_" class="st33" d="M307.6,185.4c0,0-3-11.5-3-11.5"/>
		<line id="XMLID_610_" class="st32" x1="326.2" y1="257.4" x2="348.5" y2="253.9"/>
		<g id="XMLID_588_">
			<g>
				<path id="XMLID_11_" class="st30" d="M232.9,190.3l22.8-33.1c3.7-5.4,10.2-7.9,16.5-6.3c6.3,1.5,11,6.6,11.9,13.1l13.4,98.1
					c0.8,6.2-3.5,11.8-9.6,12.7c-0.5,0.1-1,0.1-1.5,0.1c-5.5,0-10.4-4.1-11.1-9.7l-11-80.5l-10.1,14.3"/>
			</g>
		</g>
		<path id="XMLID_46_" class="st31" d="M252,205.9c6.5-0.7,13.5-14.6,13.5-14.6l10,73.7l8.3-8.5l-11.6-84.2c-0.7-5-7.1-6.6-10.1-2.5
			l-14,19.3c-3.4,4.7-10.5,4.5-13.7-0.4l0,0l-4.9,6.3C229.5,194.9,233.2,206.7,252,205.9"/>
		<g id="XMLID_569_">
			<g>
				<path id="XMLID_10_" class="st8" d="M228.2,192.9c0,0,4.2,13,21.6,13c10.1,0,15.2-15.7,15.2-15.7l10.2,74.8
					c0.8,5.6,5.6,9.7,11.1,9.7c0.5,0,1,0,1.5-0.1c6.2-0.8,10.5-6.5,9.6-12.7l-13.4-98.1c-0.9-6.4-5.5-11.6-11.9-13.1
					c-6.3-1.5-12.8,1-16.5,6.3l-22.8,33.1"/>
			</g>
		</g>
		<path id="XMLID_566_" class="st33" d="M265.1,191.3c0,0-1.8-13.7-1.8-13.7"/>
		<path id="XMLID_532_" class="st34" d="M301.1,264.2"/>
		<path id="XMLID_496_" class="st34" d="M292.8,266.2"/>
		<line id="XMLID_495_" class="st32" x1="274.7" y1="260.7" x2="296.3" y2="253.9"/>
		<g id="XMLID_301_">
			<path id="XMLID_466_" class="st24" d="M316.5,94.9v-2.7c-0.4,0.4-1,0.5-1.6,0.5h-0.6c-2.7,0-5.1-1.9-5.5-4.6
				c-0.4-3.3,2.1-6,5.3-6h1.5c2.9,0,5.3,2.4,5.3,5.3v10.2 M314.2,86.6c-0.5,0-0.8,0.4-0.8,0.8c0,0.5,0.4,0.8,0.8,0.8h0.8
				c0.2,0,0.3,0,0.5,0c0.6,0.1,1.1,2.6,1.1,2v-2.8c0-0.5-0.4-0.8-0.8-0.8H314.2z"/>
		</g>
		<path id="XMLID_491_" class="st24" d="M314.2,88.2h0.1c1.2,0,2.2,1,2.2,2.2v0c0,1.2-1,2.2-2.2,2.2H314"/>
		<g id="XMLID_541_">
			<path id="XMLID_546_" class="st18" d="M249.5,107.2l-2.7,34.6c-0.1,1.2,1,2,2.1,1.7c17.4-5.7,29.2-9.2,30.9-9.8
				c0.5,0.7,2.5,0.8,5.1,3.4c3.3,3.4,3.2,8.9-0.2,12.3c-1.7,1.7-1.9,0.8-39.8,13.3c-1.2,0.4-2.4,0.6-3.6,0.6c-3.1,0-6.2-1.3-8.4-3.7
				c-2.2-2.4-3.2-5.7-2.9-8.9l3.1-44"/>
		</g>
		<g id="XMLID_540_">
			<path id="XMLID_530_" class="st19" d="M279.8,133.6v18h10.7c1,0,1.7,0.8,1.7,1.7v8.4c0,1.8,1.5,3.2,3.2,3.2l0,0
				c1.8,0,3.2-1.5,3.2-3.2v-10.6c0-9.7-7.8-17.5-17.5-17.5H279.8z"/>
			<path id="XMLID_506_" class="st19" d="M287.2,151.6c1,0,1.7,0.8,1.7,1.7v8.4c0,1.8,1.5,3.2,3.2,3.2l0,0c1.8,0,3.2-1.5,3.2-3.2
				v-10.6"/>
			<path id="XMLID_502_" class="st13" d="M283.2,149.1c0,0.2,2.1,3.3,2.1,3.3l4.5,0.3l2.3-0.4c0,0,0.3-4.4,0-4.4
				c-0.3,0-7.5-0.8-7.5-0.8L283.2,149.1z"/>
			<path id="XMLID_537_" class="st19" d="M283.8,151.6c1,0,1.7,0.8,1.7,1.7v8.4c0,1.8,1.5,3.2,3.2,3.2l0,0c1.8,0,3.2-1.5,3.2-3.2
				v-10.6"/>
		</g>
		<rect id="XMLID_544_" x="230.5" y="176.7" class="st35" width="3.6" height="7.8"/>
		<path id="XMLID_556_" class="st36" d="M348.9,253.7l3.8,15.1l5.9,18.1c0,0,1.9,7.3-6,9.1c-6,1.4-12.7-2-14.6-8.2
			c-1.2-3.7-4-11.9-4-11.9l-4.1-2.5c-0.4-0.2-0.7-0.5-0.8-0.9l-3.6-7.6c-0.2-0.4-0.3-0.9-0.2-1.4l1.3-6.1L348.9,253.7z"/>
		<path id="XMLID_586_" class="st37" d="M332.9,256.7l0.5,4.5c0.2,1.9-1.4,3.4-3.3,3.1l-3.7-0.1c-0.6,0-1-0.6-0.9-1.1l1.5-5.8
			L332.9,256.7z"/>
		<path id="XMLID_589_" class="st37" d="M334.1,275.9l-5.5-12.1l-2,0.3c-0.7,0.1-1.1,0.8-0.8,1.5l3.3,7.1L334.1,275.9L334.1,275.9"
			/>
		<path id="XMLID_560_" class="st36" d="M296.2,253.6l6,14.4l8.5,17c0,0,3,6.9-4.5,9.9c-5.7,2.3-11.9-0.3-15.7-5.9
			c-2.2-3.3-7.1-11.2-7.1-11.2l-3.1-1.8c-0.4-0.2-0.7-0.4-1-0.8l-4.7-7c-0.3-0.4-0.4-0.9-0.4-1.3l0.4-6.2L296.2,253.6z"/>
		<path id="XMLID_559_" class="st37" d="M280.8,259.1l1.2,4.3c0.5,1.8-0.9,3.6-2.8,3.6l-3.7,0.5c-0.6,0.1-1.1-0.4-1-1l0.6-5.9
			L280.8,259.1z"/>
		<path id="XMLID_557_" class="st37" d="M284,278.7l-6.4-12l-1.9,0.6c-0.7,0.2-1,1-0.6,1.6l4.4,6.5L284,278.7"/>
		<line id="XMLID_562_" class="st38" x1="288.1" y1="265.7" x2="298.8" y2="261.7"/>
		<line id="XMLID_590_" class="st38" x1="290.1" y1="269.2" x2="300.8" y2="265.2"/>
		<line id="XMLID_591_" class="st38" x1="291.6" y1="272.9" x2="302.2" y2="268.9"/>
		<line id="XMLID_609_" class="st38" x1="339.1" y1="263.1" x2="350.2" y2="260.7"/>
		<line id="XMLID_593_" class="st38" x1="340.5" y1="266.9" x2="351.7" y2="264.5"/>
		<line id="XMLID_592_" class="st38" x1="341.4" y1="270.7" x2="352.5" y2="268.3"/>
		
			<ellipse id="XMLID_461_" transform="matrix(9.696964e-02 -0.9953 0.9953 9.696964e-02 212.3439 357.1292)" class="st39" cx="303" cy="61.5" rx="1.6" ry="1.6"/>
		
			<ellipse id="XMLID_536_" transform="matrix(9.693857e-02 -0.9953 0.9953 9.693857e-02 214.94 379.4898)" class="st39" cx="316.6" cy="71.3" rx="1.6" ry="1.6"/>
		<path id="XMLID_476_" class="st40" d="M524.1,699.9l-77.9,32.2c-0.2,0.1-0.4,0-0.5-0.1l-32.8-15.5v-16.6"/>
		<polygon id="XMLID_488_" class="st41" points="524.1,699.9 412.9,699.9 445.9,716.5 557.1,716.5 		"/>
		<polygon id="XMLID_474_" class="st2" points="557,732.1 445.9,732.1 472.2,742.7 583.4,742.7 		"/>
		<path id="XMLID_471_" class="st42" d="M557.1,732.2H446.4c-0.3,0-0.5-0.2-0.5-0.5v-15.1h110.4c0.4,0,0.8,0.4,0.8,0.8V732.2z"/>
		<g id="XMLID_388_">
			<line id="XMLID_477_" class="st43" x1="492.9" y1="726.6" x2="487.1" y2="724.3"/>
			<line id="XMLID_478_" class="st43" x1="524.7" y1="726.6" x2="519.6" y2="723.9"/>
			<line id="XMLID_430_" class="st44" x1="524.7" y1="726.6" x2="492.8" y2="726.6"/>
		</g>
		<path id="XMLID_69_" class="st8" d="M271.6,85.2l-7.4-8.1l5.2-9.4c0,0-1-8,3.1-14.6"/>
	</g>
</g>
<g>
	<path class="st45" d="M18.6,818.5h16.9c1.1,0.2,1.7,0.8,1.7,1.8v0.3c0,1-0.7,1.6-2,1.7h-6.3v21.5c0,1-0.6,1.6-1.8,1.8H27
		c-1,0-1.6-0.6-1.8-1.9v-21.4h-6.4c-1.2-0.2-1.9-0.9-1.9-2C17.2,819.1,17.7,818.5,18.6,818.5z"/>
	<path class="st45" d="M40.9,818.6h0.3c1.1,0.2,1.7,0.8,1.7,1.6v7.2c1.3-1.1,2.9-1.6,5.1-1.6c3.2,0,5.8,1.5,7.8,4.6
		c0.7,1.4,1.1,2.7,1.1,3.9v9.5c0,1-0.6,1.6-1.8,1.8H55c-0.9,0-1.5-0.6-1.8-1.7v-9.2c0-2.2-1.2-3.8-3.5-4.8c-0.5-0.2-1.1-0.2-1.7-0.2
		c-2.3,0-3.9,1.2-4.8,3.7c-0.2,0.5-0.2,1.4-0.2,2.7v7.8c0,1-0.6,1.6-1.8,1.8H41c-0.9,0-1.5-0.6-1.8-1.7v-23.5
		C39.5,819.2,40,818.6,40.9,818.6z"/>
	<path class="st45" d="M67.9,825.9c3.8,0,6.7,1.8,8.8,5.4c0.7,1.4,1.1,2.9,1.1,4.6v0.4c-0.2,1.2-0.8,1.8-1.8,1.8H62.5
		c0.3,1.2,1.3,2.2,2.9,3.1c1,0.4,1.8,0.5,2.7,0.5c1,0,2.1-0.3,3.5-1h0.6c1.1,0.2,1.7,0.8,1.7,1.8v0.2c0,1.4-1.8,2.4-5.4,2.8h-0.5
		c-3.5,0-6.3-1.6-8.5-4.9c-0.9-1.6-1.3-3.2-1.3-4.9c0-3.6,1.7-6.4,5.1-8.6C64.9,826.3,66.5,825.9,67.9,825.9z M62.1,834.4H74
		c0-0.4-0.5-1.3-1.5-2.7c-1.3-1.3-2.7-1.9-4-1.9h-0.7c-2,0-3.6,1-4.9,2.9C62.4,833.4,62.2,834,62.1,834.4z"/>
	<path class="st45" d="M82.4,825.8c1.2,0.3,1.8,0.9,1.8,1.7v0.3c1.5-1.3,3.4-2,5.8-2c1.3,0,2.7,0.3,4.2,1c0.5,0.5,0.8,1,0.8,1.5v0.1
		c-0.2,1.2-0.8,1.8-1.8,1.8H93c-1.2-0.4-2.1-0.6-2.7-0.6h-0.4c-2.4,0-4.2,1.3-5.3,3.8c-0.2,0.7-0.4,1.4-0.4,2.3v8
		c0,1-0.6,1.6-1.8,1.8h-0.1c-1,0-1.6-0.6-1.8-1.8v-15.8C80.6,826.5,81.3,825.8,82.4,825.8z"/>
	<path class="st45" d="M105.1,825.9c3.8,0,6.7,1.8,8.8,5.4c0.7,1.4,1.1,2.9,1.1,4.6v0.4c-0.2,1.2-0.8,1.8-1.8,1.8H99.6
		c0.3,1.2,1.3,2.2,2.9,3.1c1,0.4,1.8,0.5,2.7,0.5c1,0,2.1-0.3,3.5-1h0.6c1.1,0.2,1.7,0.8,1.7,1.8v0.2c0,1.4-1.8,2.4-5.4,2.8h-0.5
		c-3.5,0-6.3-1.6-8.5-4.9c-0.9-1.6-1.3-3.2-1.3-4.9c0-3.6,1.7-6.4,5.1-8.6C102.1,826.3,103.7,825.9,105.1,825.9z M99.3,834.4h11.8
		c0-0.4-0.5-1.3-1.5-2.7c-1.3-1.3-2.7-1.9-4-1.9h-0.7c-2,0-3.6,1-4.9,2.9C99.6,833.4,99.3,834,99.3,834.4z"/>
	<path class="st45" d="M142.7,818.5h0.3c1.1,0.2,1.7,0.8,1.7,1.6v13.5l0.1,2.3c0,1.9-0.8,3.9-2.3,5.9c-2.2,2.4-4.6,3.5-7.4,3.5h-0.5
		c-2.7,0-5.2-1.2-7.4-3.7c-1.4-2-2.1-4-2.1-6.2c0-3.2,1.4-5.9,4.3-8.1c1.8-1.2,3.7-1.8,5.6-1.8c2.5,0,4.6,0.7,6.1,2.1v-6.5l-0.1-1.2
		C141.3,819.1,141.9,818.5,142.7,818.5z M128.7,835.4v0.3c0,2.6,1.3,4.5,4,5.7c0.7,0.2,1.3,0.3,1.9,0.3h0.4c2.5,0,4.4-1.3,5.6-4
		c0.2-0.8,0.3-1.4,0.3-1.9v-0.4c0-2.5-1.4-4.4-4.1-5.7c-0.8-0.2-1.5-0.3-1.9-0.3h-0.3c-2.5,0-4.4,1.3-5.6,4
		C128.9,834.1,128.7,834.8,128.7,835.4z"/>
	<path class="st45" d="M155.8,826c2.5,0,4.8,1,6.8,2.9c1.9,2,2.9,4.3,2.9,6.9c0,3.6-1.7,6.5-5.2,8.6c-1.5,0.8-3,1.1-4.4,1.1h-0.5
		c-2.6,0-5.1-1.2-7.3-3.7c-1.4-2-2.1-4-2.1-6.1c0-3.2,1.4-5.8,4.2-7.9C152,826.6,153.9,826,155.8,826z M149.8,835.6v0.3
		c0,2.3,1.1,4,3.3,5.2c0.8,0.4,1.6,0.6,2.5,0.6h0.4c2.3,0,4.1-1.2,5.3-3.6c0.3-0.7,0.4-1.5,0.4-2.2v-0.3c0-1.9-0.9-3.4-2.6-4.7
		c-1-0.7-2.1-1-3.5-1c-2.5,0-4.4,1.3-5.6,4C149.9,834.4,149.8,835,149.8,835.6z"/>
	<path class="st45" d="M175.9,825.9c3.8,0,6.7,1.8,8.8,5.4c0.7,1.4,1.1,2.9,1.1,4.6v0.4c-0.2,1.2-0.8,1.8-1.8,1.8h-13.5
		c0.3,1.2,1.3,2.2,2.9,3.1c1,0.4,1.8,0.5,2.7,0.5c1,0,2.1-0.3,3.5-1h0.6c1.1,0.2,1.7,0.8,1.7,1.8v0.2c0,1.4-1.8,2.4-5.4,2.8h-0.5
		c-3.5,0-6.3-1.6-8.5-4.9c-0.9-1.6-1.3-3.2-1.3-4.9c0-3.6,1.7-6.4,5.1-8.6C172.9,826.3,174.4,825.9,175.9,825.9z M170.1,834.4h11.8
		c0-0.4-0.5-1.3-1.5-2.7c-1.3-1.3-2.7-1.9-4-1.9h-0.7c-2,0-3.6,1-4.9,2.9C170.4,833.4,170.1,834,170.1,834.4z"/>
	<path class="st45" d="M199.3,839c0-0.2-0.3-0.4-0.7-0.4c-6.1-1.4-9.3-2.2-9.8-2.6c-1.2-0.9-1.9-2.1-1.9-3.5c0-1.9,1.3-3.7,3.9-5.3
		c1.4-0.8,2.9-1.1,4.3-1.1c3.3,0,5.9,1.5,7.8,4.6l0.1,0.7v0.1c0,1-0.6,1.6-1.8,1.8c-0.8,0-1.6-0.6-2.3-1.7c-1.1-1.1-2.4-1.6-3.8-1.6
		c-1.9,0-3.3,0.9-4.4,2.6l0,0.2c0,0.2,0.5,0.4,1.6,0.5c5.2,1.3,8,2,8.6,2.2c1.5,1,2.2,2.2,2.2,3.7v0.1c0,2.1-1.5,3.9-4.4,5.6
		c-1.3,0.6-2.6,0.8-4,0.8c-2.9,0-5.3-1.3-7.3-4c-0.3-0.4-0.4-0.7-0.4-1V840c0-1,0.7-1.5,2-1.7c0.6,0,1.4,0.6,2.3,1.9
		c1.1,1,2.3,1.5,3.7,1.5c1.7,0,3.1-0.8,4.2-2.4L199.3,839z"/>
	<path class="st45" d="M207.5,825.9c1.2,0.3,1.8,0.9,1.8,1.7v0.3c1.4-1.3,3.4-2,5.9-2c2.7,0,5.1,1.1,7.2,3.4
		c1.5,1.9,2.3,3.9,2.3,5.9v8.6c0,0.9-0.6,1.5-1.8,1.7h-0.2c-1.2-0.2-1.8-0.8-1.8-1.8v-7.6c0-3.1-1.3-5.2-4-6.2
		c-0.7-0.2-1.2-0.3-1.7-0.3h-0.2c-2.2,0-4,1.2-5.2,3.5c-0.3,0.7-0.5,1.8-0.5,3.5v7.1c0,1-0.6,1.5-1.8,1.8h-0.1c-1,0-1.6-0.6-1.8-1.8
		V828C205.6,826.6,206.3,825.9,207.5,825.9z"/>
	<path class="st45" d="M231,816.3h0.5c1.3,0,2.2,1.6,2.6,4.8v0.4c0,1.7-0.9,3.4-2.8,4.9c-0.5,0.3-0.9,0.4-1.2,0.4
		c-0.4-0.2-0.7-0.4-0.9-0.8v-0.5c0.7-1.7,1.1-3.1,1.1-4.2v-0.2c0-0.7-0.3-1.5-0.9-2.5v-0.6C229.5,816.9,230.1,816.3,231,816.3z"/>
	<path class="st45" d="M241,819.3h0.3c1.1,0.2,1.7,0.8,1.7,1.6v5.4h2.1l0.6-0.1c0.9,0,1.5,0.6,1.8,1.8c0,0.9-0.5,1.5-1.6,1.9
		l-1.1-0.1h-1.9v9.2c0,1.4,0.4,2.3,1.2,2.6l1.4,0.1h0.7c0.9,0,1.4,0.6,1.7,1.8v0.2c-0.2,1.2-0.8,1.8-1.8,1.8h-1.4
		c-2.3,0-4.1-1.3-5.2-3.8c-0.2-0.6-0.3-1.4-0.3-2.2v-9.6h-0.8l-1.2,0.1c-1.1-0.4-1.6-1-1.6-1.9c0.2-1.2,0.6-1.8,1.2-1.8v-0.1
		l1.2,0.1h1.1v-5.1C239.4,820,240,819.3,241,819.3z"/>
	<path class="st45" d="M270.1,839c0-0.2-0.3-0.4-0.7-0.4c-6.1-1.4-9.3-2.2-9.8-2.6c-1.2-0.9-1.9-2.1-1.9-3.5c0-1.9,1.3-3.7,3.9-5.3
		c1.4-0.8,2.9-1.1,4.3-1.1c3.3,0,5.9,1.5,7.8,4.6l0.1,0.7v0.1c0,1-0.6,1.6-1.8,1.8c-0.8,0-1.6-0.6-2.3-1.7c-1.1-1.1-2.4-1.6-3.8-1.6
		c-1.9,0-3.3,0.9-4.4,2.6l0,0.2c0,0.2,0.5,0.4,1.6,0.5c5.2,1.3,8,2,8.6,2.2c1.5,1,2.2,2.2,2.2,3.7v0.1c0,2.1-1.5,3.9-4.4,5.6
		c-1.3,0.6-2.6,0.8-4,0.8c-2.9,0-5.3-1.3-7.3-4c-0.3-0.4-0.4-0.7-0.4-1V840c0-1,0.7-1.5,2-1.7c0.6,0,1.4,0.6,2.3,1.9
		c1.1,1,2.3,1.5,3.7,1.5c1.7,0,3.1-0.8,4.2-2.4L270.1,839z"/>
	<path class="st45" d="M284.7,825.9c3.8,0,6.7,1.8,8.8,5.4c0.7,1.4,1.1,2.9,1.1,4.6v0.4c-0.2,1.2-0.8,1.8-1.8,1.8h-13.5
		c0.3,1.2,1.3,2.2,2.9,3.1c1,0.4,1.8,0.5,2.7,0.5c1,0,2.1-0.3,3.5-1h0.6c1.1,0.2,1.7,0.8,1.7,1.8v0.2c0,1.4-1.8,2.4-5.4,2.8h-0.5
		c-3.5,0-6.3-1.6-8.5-4.9c-0.9-1.6-1.3-3.2-1.3-4.9c0-3.6,1.7-6.4,5.1-8.6C281.6,826.3,283.2,825.9,284.7,825.9z M278.8,834.4h11.8
		c0-0.4-0.5-1.3-1.5-2.7c-1.3-1.3-2.7-1.9-4-1.9h-0.7c-2,0-3.6,1-4.9,2.9C279.1,833.4,278.9,834,278.8,834.4z"/>
	<path class="st45" d="M305.1,825.9c3.8,0,6.7,1.8,8.8,5.4c0.7,1.4,1.1,2.9,1.1,4.6v0.4c-0.2,1.2-0.8,1.8-1.8,1.8h-13.5
		c0.3,1.2,1.3,2.2,2.9,3.1c1,0.4,1.8,0.5,2.7,0.5c1,0,2.1-0.3,3.5-1h0.6c1.1,0.2,1.7,0.8,1.7,1.8v0.2c0,1.4-1.8,2.4-5.4,2.8h-0.5
		c-3.5,0-6.3-1.6-8.5-4.9c-0.9-1.6-1.3-3.2-1.3-4.9c0-3.6,1.7-6.4,5.1-8.6C302.1,826.3,303.6,825.9,305.1,825.9z M299.3,834.4h11.8
		c0-0.4-0.5-1.3-1.5-2.7c-1.3-1.3-2.7-1.9-4-1.9h-0.7c-2,0-3.6,1-4.9,2.9C299.6,833.4,299.3,834,299.3,834.4z"/>
	<path class="st45" d="M318.9,826.2c0.9,0,1.5,0.4,1.7,1.2c1-0.8,2.4-1.2,4.2-1.2c2.5,0,4.4,0.9,5.9,2.7c0.5-1,2-1.8,4.4-2.5
		l1.6-0.2c3,0,5.4,1.4,7.1,4.3c0.6,1.2,0.9,2.3,0.9,3.4v9.9c0,0.9-0.6,1.4-1.8,1.7h-0.2c-1.2-0.2-1.8-0.8-1.8-1.8v-9.6
		c0-1.9-1-3.3-3-4l-0.8-0.1h-0.6c-1.6,0-2.8,0.9-3.7,2.8c-0.1,0.4-0.2,0.7-0.2,1v9.9c-0.2,1.2-0.8,1.8-1.8,1.8h-0.1
		c-1.2-0.2-1.8-0.8-1.8-1.7v-8.2c0-2.1-0.3-3.4-0.8-3.9c-0.9-1.2-2-1.7-3.3-1.7h-0.2c-1.9,0-3.2,1-3.9,3c-0.1,0.5-0.2,1.1-0.2,2v8.8
		c0,1-0.6,1.5-1.8,1.7h-0.1c-1,0-1.6-0.6-1.8-1.8v-15.4C317.1,826.9,317.8,826.2,318.9,826.2z"/>
	<path class="st45" d="M361.3,819.3h0.3c1.1,0.2,1.7,0.8,1.7,1.6v5.4h2.2l0.6-0.1c0.9,0,1.5,0.6,1.8,1.8c0,0.9-0.5,1.5-1.6,1.9
		l-1.1-0.1h-1.9v9.2c0,1.4,0.4,2.3,1.2,2.6l1.4,0.1h0.7c0.9,0,1.4,0.6,1.7,1.8v0.2c-0.2,1.2-0.8,1.8-1.8,1.8h-1.4
		c-2.3,0-4.1-1.3-5.2-3.8c-0.2-0.6-0.3-1.4-0.3-2.2v-9.6h-0.8l-1.2,0.1c-1.1-0.4-1.6-1-1.6-1.9c0.2-1.2,0.6-1.8,1.2-1.8v-0.1
		l1.2,0.1h1.1v-5.1C359.8,820,360.4,819.3,361.3,819.3z"/>
	<path class="st45" d="M378.4,826c2.5,0,4.8,1,6.8,2.9c1.9,2,2.9,4.3,2.9,6.9c0,3.6-1.7,6.5-5.2,8.6c-1.5,0.8-3,1.1-4.4,1.1H378
		c-2.6,0-5.1-1.2-7.3-3.7c-1.4-2-2.1-4-2.1-6.1c0-3.2,1.4-5.8,4.2-7.9C374.6,826.6,376.5,826,378.4,826z M372.4,835.6v0.3
		c0,2.3,1.1,4,3.3,5.2c0.8,0.4,1.6,0.6,2.5,0.6h0.4c2.3,0,4.1-1.2,5.3-3.6c0.3-0.7,0.4-1.5,0.4-2.2v-0.3c0-1.9-0.9-3.4-2.6-4.7
		c-1-0.7-2.1-1-3.5-1c-2.5,0-4.4,1.3-5.6,4C372.5,834.4,372.4,835,372.4,835.6z"/>
	<path class="st45" d="M400.4,818.5h0.3c1.1,0.3,1.7,0.8,1.7,1.7v7.6c1.5-1.4,3.5-2.1,6.2-2.1c2.5,0,4.8,1,6.9,2.9c2,2.1,3,4.4,3,7
		c0,3.7-1.8,6.6-5.3,8.7c-1.5,0.8-3,1.2-4.4,1.2h-0.5c-2.7,0-5.2-1.2-7.4-3.7c-1.4-1.9-2.1-4.1-2.1-6.6v-14.9
		C398.7,819.4,399.3,818.8,400.4,818.5z M402.4,835.4v0.3c0,2.6,1.3,4.5,4,5.7c0.7,0.2,1.3,0.3,1.9,0.3h0.4c2.5,0,4.4-1.3,5.6-4
		c0.2-0.8,0.3-1.4,0.3-1.9v-0.4c0-2.5-1.4-4.4-4.1-5.7c-0.8-0.2-1.5-0.3-1.9-0.3h-0.3c-2.5,0-4.4,1.3-5.6,4
		C402.6,834.1,402.4,834.8,402.4,835.4z"/>
	<path class="st45" d="M429.3,825.9c3.8,0,6.7,1.8,8.8,5.4c0.7,1.4,1.1,2.9,1.1,4.6v0.4c-0.2,1.2-0.8,1.8-1.8,1.8h-13.5
		c0.3,1.2,1.3,2.2,2.9,3.1c1,0.4,1.8,0.5,2.7,0.5c1,0,2.1-0.3,3.5-1h0.6c1.1,0.2,1.7,0.8,1.7,1.8v0.2c0,1.4-1.8,2.4-5.4,2.8h-0.5
		c-3.5,0-6.3-1.6-8.5-4.9c-0.9-1.6-1.3-3.2-1.3-4.9c0-3.6,1.7-6.4,5.1-8.6C426.3,826.3,427.9,825.9,429.3,825.9z M423.5,834.4h11.8
		c0-0.4-0.5-1.3-1.5-2.7c-1.3-1.3-2.7-1.9-4-1.9h-0.7c-2,0-3.6,1-4.9,2.9C423.8,833.4,423.6,834,423.5,834.4z"/>
	<path class="st45" d="M465.1,843.4c-1.5,1.4-3.4,2.1-5.8,2.1h-0.5c-3.3,0-6.1-1.7-8.3-5c-0.8-1.6-1.2-3.2-1.2-4.9
		c0-3.6,1.8-6.5,5.3-8.7c1.5-0.7,3-1.1,4.4-1.1c3.7,0,6.6,1.8,8.8,5.4c0.7,1.5,1,3,1,4.6v7.8c0,1-0.6,1.5-1.8,1.8h-0.1
		c-0.8,0-1.4-0.5-1.8-1.4v-0.2L465.1,843.4z M452.9,835.6v0.2c0,2.5,1.2,4.3,3.7,5.6c0.8,0.3,1.5,0.4,2.1,0.4h0.5c2,0,3.7-1,5.1-3.1
		c0.5-1,0.7-1.9,0.7-2.8v-0.3c0-2.4-1.2-4.2-3.5-5.5c-0.8-0.4-1.7-0.5-2.5-0.5h-0.1c-2.5,0-4.4,1.3-5.6,3.9
		C453.1,834.4,452.9,835,452.9,835.6z"/>
	<path class="st45" d="M474.3,825.9c1.2,0.3,1.8,0.9,1.8,1.7v0.3c1.4-1.3,3.4-2,5.9-2c2.7,0,5.1,1.1,7.2,3.4
		c1.5,1.9,2.3,3.9,2.3,5.9v8.6c0,0.9-0.6,1.5-1.8,1.7h-0.2c-1.2-0.2-1.8-0.8-1.8-1.8v-7.6c0-3.1-1.3-5.2-4-6.2
		c-0.7-0.2-1.2-0.3-1.7-0.3h-0.2c-2.2,0-4,1.2-5.2,3.5c-0.3,0.7-0.5,1.8-0.5,3.5v7.1c0,1-0.6,1.5-1.8,1.8h-0.1c-1,0-1.6-0.6-1.8-1.8
		V828C472.5,826.6,473.1,825.9,474.3,825.9z"/>
	<path class="st45" d="M500.8,838c3-7.3,4.6-11.1,4.9-11.4c0.4-0.3,0.9-0.5,1.3-0.5c1.2,0.2,1.7,0.8,1.7,1.7v0.1
		c0,0.4-2.1,5.5-6.3,15.3c-2,4.9-3.1,7.5-3.4,7.9c-0.3,0.2-0.7,0.4-1.2,0.5c-1.2-0.3-1.8-0.8-1.8-1.6v-0.3c0-0.2,0.9-2.6,2.8-7.1
		l-6-14.5v-0.2c0.2-1.2,0.8-1.7,1.8-1.7c1,0,1.8,1,2.3,2.9C499,833.7,500.2,836.7,500.8,838z"/>
	<path class="st45" d="M514.5,819.3h0.3c1.1,0.2,1.7,0.8,1.7,1.6v5.4h2.2l0.6-0.1c0.9,0,1.5,0.6,1.8,1.8c0,0.9-0.5,1.5-1.6,1.9
		l-1.1-0.1h-1.9v9.2c0,1.4,0.4,2.3,1.2,2.6l1.4,0.1h0.7c0.9,0,1.4,0.6,1.7,1.8v0.2c-0.2,1.2-0.8,1.8-1.8,1.8h-1.4
		c-2.3,0-4.1-1.3-5.2-3.8c-0.2-0.6-0.3-1.4-0.3-2.2v-9.6H512l-1.2,0.1c-1.1-0.4-1.6-1-1.6-1.9c0.2-1.2,0.6-1.8,1.2-1.8v-0.1l1.2,0.1
		h1.1v-5.1C512.9,820,513.5,819.3,514.5,819.3z"/>
	<path class="st45" d="M524.3,818.6h0.3c1.1,0.2,1.7,0.8,1.7,1.6v7.2c1.3-1.1,2.9-1.6,5.1-1.6c3.2,0,5.8,1.5,7.8,4.6
		c0.7,1.4,1.1,2.7,1.1,3.9v9.5c0,1-0.6,1.6-1.8,1.8h-0.1c-0.9,0-1.5-0.6-1.8-1.7v-9.2c0-2.2-1.2-3.8-3.5-4.8
		c-0.5-0.2-1.1-0.2-1.7-0.2c-2.3,0-3.9,1.2-4.8,3.7c-0.2,0.5-0.2,1.4-0.2,2.7v7.8c0,1-0.6,1.6-1.8,1.8h-0.1c-0.9,0-1.5-0.6-1.8-1.7
		v-23.5C522.9,819.2,523.5,818.6,524.3,818.6z"/>
	<path class="st45" d="M545.5,821.2c1.2,0.3,1.8,0.9,1.8,1.7v0.4c0,1-0.6,1.5-1.9,1.7c-0.9,0-1.5-0.6-1.8-1.9
		C543.7,821.8,544.4,821.2,545.5,821.2z M545.5,825.8c1.2,0.3,1.8,0.9,1.8,1.7v16.2c0,1-0.6,1.6-1.8,1.8h-0.1c-1,0-1.6-0.6-1.8-1.8
		v-15.8C543.7,826.5,544.3,825.8,545.5,825.8z"/>
	<path class="st45" d="M552.8,825.9c1.2,0.3,1.8,0.9,1.8,1.7v0.3c1.4-1.3,3.4-2,5.9-2c2.7,0,5.1,1.1,7.2,3.4
		c1.5,1.9,2.3,3.9,2.3,5.9v8.6c0,0.9-0.6,1.5-1.8,1.7h-0.2c-1.2-0.2-1.8-0.8-1.8-1.8v-7.6c0-3.1-1.3-5.2-4-6.2
		c-0.7-0.2-1.2-0.3-1.7-0.3h-0.2c-2.2,0-4,1.2-5.2,3.5c-0.3,0.7-0.5,1.8-0.5,3.5v7.1c0,1-0.6,1.5-1.8,1.8h-0.1c-1,0-1.6-0.6-1.8-1.8
		V828C551,826.6,551.6,825.9,552.8,825.9z"/>
	<path class="st45" d="M580.9,826c2.9,0,5.4,1.2,7.5,3.6c1.5,2,2.2,3.9,2.2,5.7l-0.1,2.3v8.1c0,1.7-1.2,3.5-3.7,5.4
		c-1.9,1.2-3.9,1.9-5.9,1.9c-3.5,0-6.5-1.6-8.8-4.7c-0.5-0.8-0.7-1.3-0.7-1.6v-0.2c0-0.9,0.6-1.4,1.7-1.7h0.3c0.9,0,1.5,0.7,2,2
		c1.5,1.8,3.3,2.8,5.5,2.8c2.6,0,4.6-1.2,5.9-3.5l0.1-0.7v-1.8c-1.5,1.4-3.4,2.1-5.8,2.1h-0.5c-2.6,0-5.1-1.2-7.3-3.7
		c-1.4-2-2.1-4-2.1-6.1c0-3.2,1.4-5.8,4.2-7.9C577.1,826.6,579,826,580.9,826z M574.9,835.5v0.3c0,2.5,1.3,4.4,4,5.6
		c0.7,0.2,1.3,0.3,1.9,0.3h0.4c2.4,0,4.3-1.3,5.5-3.9c0.2-0.8,0.3-1.4,0.3-1.8v-0.4c0-2.5-1.3-4.4-4-5.6c-0.8-0.2-1.5-0.3-1.9-0.3
		h-0.3c-2.4,0-4.3,1.3-5.5,3.9C575,834.3,574.9,834.9,574.9,835.5z"/>
	<path class="st45" d="M118,863h0.3c1.1,0.2,1.7,0.8,1.7,1.6v7.2c1.3-1.1,2.9-1.6,5.1-1.6c3.2,0,5.8,1.5,7.8,4.6
		c0.7,1.4,1.1,2.7,1.1,3.9v9.5c0,1-0.6,1.6-1.8,1.8h-0.1c-0.9,0-1.5-0.6-1.8-1.7V879c0-2.2-1.2-3.8-3.5-4.8
		c-0.5-0.2-1.1-0.2-1.7-0.2c-2.3,0-3.9,1.2-4.8,3.7c-0.2,0.5-0.2,1.4-0.2,2.7v7.8c0,1-0.6,1.6-1.8,1.8h-0.1c-0.9,0-1.5-0.6-1.8-1.7
		v-23.5C116.6,863.6,117.1,863,118,863z"/>
	<path class="st45" d="M145,870.3c3.8,0,6.7,1.8,8.8,5.4c0.7,1.4,1.1,2.9,1.1,4.6v0.4c-0.2,1.2-0.8,1.8-1.8,1.8h-13.5
		c0.3,1.2,1.3,2.2,2.9,3.1c1,0.4,1.8,0.5,2.7,0.5c1,0,2.1-0.3,3.5-1h0.6c1.1,0.2,1.7,0.8,1.7,1.8v0.2c0,1.4-1.8,2.4-5.4,2.8H145
		c-3.5,0-6.3-1.6-8.5-4.9c-0.9-1.6-1.3-3.2-1.3-4.9c0-3.6,1.7-6.4,5.1-8.6C142,870.7,143.6,870.3,145,870.3z M139.2,878.8h11.8
		c0-0.4-0.5-1.3-1.5-2.7c-1.3-1.3-2.7-1.9-4-1.9h-0.7c-2,0-3.6,1-4.9,2.9C139.5,877.8,139.3,878.4,139.2,878.8z"/>
	<path class="st45" d="M159.5,870.2c1.2,0.3,1.8,0.9,1.8,1.7v0.3c1.5-1.3,3.4-2,5.8-2c1.3,0,2.7,0.3,4.2,1c0.5,0.5,0.8,1,0.8,1.5
		v0.1c-0.2,1.2-0.8,1.8-1.8,1.8h-0.2c-1.2-0.4-2.1-0.6-2.7-0.6H167c-2.4,0-4.2,1.3-5.3,3.8c-0.2,0.7-0.4,1.4-0.4,2.3v8
		c0,1-0.6,1.6-1.8,1.8h-0.1c-1,0-1.6-0.6-1.8-1.8v-15.8C157.7,870.9,158.3,870.2,159.5,870.2z"/>
	<path class="st45" d="M182.2,870.3c3.8,0,6.7,1.8,8.8,5.4c0.7,1.4,1.1,2.9,1.1,4.6v0.4c-0.2,1.2-0.8,1.8-1.8,1.8h-13.5
		c0.3,1.2,1.3,2.2,2.9,3.1c1,0.4,1.8,0.5,2.7,0.5c1,0,2.1-0.3,3.5-1h0.6c1.1,0.2,1.7,0.8,1.7,1.8v0.2c0,1.4-1.8,2.4-5.4,2.8h-0.5
		c-3.5,0-6.3-1.6-8.5-4.9c-0.9-1.6-1.3-3.2-1.3-4.9c0-3.6,1.7-6.4,5.1-8.6C179.2,870.7,180.8,870.3,182.2,870.3z M176.4,878.8h11.8
		c0-0.4-0.5-1.3-1.5-2.7c-1.3-1.3-2.7-1.9-4-1.9H182c-2,0-3.6,1-4.9,2.9C176.7,877.8,176.4,878.4,176.4,878.8z"/>
	<path class="st45" d="M198,889.9c-2.1-0.4-3.2-1.4-3.2-3.1v-0.1c0-1.2,0.7-2.1,2.2-2.7c0.3-0.1,0.6-0.2,1-0.2h0.3
		c2,0.4,2.9,1.3,2.9,2.8l0,0.6l0.1,0.8v0.3c0,2.4-1.2,4.3-3.6,5.5c-0.5,0.3-1,0.5-1.4,0.5c-0.8,0-1.3-0.5-1.5-1.6
		c0-0.9,0.6-1.5,1.9-1.7C197.3,890.7,197.7,890.4,198,889.9z"/>
	<path class="st45" d="M222.9,862.9h1.7c0.9,0,1.5,0.7,1.7,2c0,0.9-0.6,1.5-1.9,1.8h-1.1c-1.4,0-2.3,0.8-2.7,2.3l-0.1,1.4v0.4h2.4
		l1.1-0.1c0.9,0,1.5,0.6,1.7,1.8v0.3c0,0.9-0.6,1.4-1.7,1.7h-3.5v13l0.1,0.8c0,0.9-0.6,1.5-1.8,1.8c-0.9,0-1.6-0.5-2-1.6l0.1-0.9
		v-13h-3c-0.9,0-1.5-0.7-1.7-2c0-0.7,0.5-1.3,1.5-1.8l1.5,0.1h1.6V870c0-3.3,1.5-5.6,4.4-6.8L222.9,862.9z"/>
	<path class="st45" d="M237,870.4c2.5,0,4.8,1,6.8,2.9c1.9,2,2.9,4.3,2.9,6.9c0,3.6-1.7,6.5-5.2,8.6c-1.5,0.8-3,1.1-4.4,1.1h-0.5
		c-2.6,0-5.1-1.2-7.3-3.7c-1.4-2-2.1-4-2.1-6.1c0-3.2,1.4-5.8,4.2-7.9C233.3,871,235.1,870.4,237,870.4z M231.1,880v0.3
		c0,2.3,1.1,4,3.3,5.2c0.8,0.4,1.6,0.6,2.5,0.6h0.4c2.3,0,4.1-1.2,5.3-3.6c0.3-0.7,0.4-1.5,0.4-2.2V880c0-1.9-0.9-3.4-2.6-4.7
		c-1-0.7-2.1-1-3.5-1c-2.5,0-4.4,1.3-5.6,4C231.2,878.8,231.1,879.4,231.1,880z"/>
	<path class="st45" d="M251.1,870.2c1.2,0.3,1.8,0.9,1.8,1.7v0.3c1.5-1.3,3.4-2,5.8-2c1.3,0,2.7,0.3,4.2,1c0.5,0.5,0.8,1,0.8,1.5
		v0.1c-0.2,1.2-0.8,1.8-1.8,1.8h-0.2c-1.2-0.4-2.1-0.6-2.7-0.6h-0.4c-2.4,0-4.2,1.3-5.3,3.8c-0.2,0.7-0.4,1.4-0.4,2.3v8
		c0,1-0.6,1.6-1.8,1.8H251c-1,0-1.6-0.6-1.8-1.8v-15.8C249.3,870.9,249.9,870.2,251.1,870.2z"/>
	<path class="st45" d="M278.4,863.7h0.3c1.1,0.2,1.7,0.8,1.7,1.6v5.4h2.1l0.6-0.1c0.9,0,1.5,0.6,1.8,1.8c0,0.9-0.5,1.5-1.6,1.9
		l-1.1-0.1h-1.9v9.2c0,1.4,0.4,2.3,1.2,2.6l1.4,0.1h0.7c0.9,0,1.4,0.6,1.7,1.8v0.2c-0.2,1.2-0.8,1.8-1.8,1.8h-1.4
		c-2.3,0-4.1-1.3-5.2-3.8c-0.2-0.6-0.3-1.4-0.3-2.2v-9.6H276l-1.2,0.1c-1.1-0.4-1.6-1-1.6-1.9c0.2-1.2,0.6-1.8,1.2-1.8v-0.1l1.2,0.1
		h1.1v-5.1C276.9,864.4,277.5,863.7,278.4,863.7z"/>
	<path class="st45" d="M288.3,863h0.3c1.1,0.2,1.7,0.8,1.7,1.6v7.2c1.3-1.1,2.9-1.6,5.1-1.6c3.2,0,5.8,1.5,7.8,4.6
		c0.7,1.4,1.1,2.7,1.1,3.9v9.5c0,1-0.6,1.6-1.8,1.8h-0.1c-0.9,0-1.5-0.6-1.8-1.7V879c0-2.2-1.2-3.8-3.5-4.8
		c-0.5-0.2-1.1-0.2-1.7-0.2c-2.3,0-3.9,1.2-4.8,3.7c-0.2,0.5-0.2,1.4-0.2,2.7v7.8c0,1-0.6,1.6-1.8,1.8h-0.1c-0.9,0-1.5-0.6-1.8-1.7
		v-23.5C286.9,863.6,287.4,863,288.3,863z"/>
	<path class="st45" d="M315.3,870.3c3.8,0,6.7,1.8,8.8,5.4c0.7,1.4,1.1,2.9,1.1,4.6v0.4c-0.2,1.2-0.8,1.8-1.8,1.8h-13.5
		c0.3,1.2,1.3,2.2,2.9,3.1c1,0.4,1.8,0.5,2.7,0.5c1,0,2.1-0.3,3.5-1h0.6c1.1,0.2,1.7,0.8,1.7,1.8v0.2c0,1.4-1.8,2.4-5.4,2.8h-0.5
		c-3.5,0-6.3-1.6-8.5-4.9c-0.9-1.6-1.3-3.2-1.3-4.9c0-3.6,1.7-6.4,5.1-8.6C312.3,870.7,313.9,870.3,315.3,870.3z M309.5,878.8h11.8
		c0-0.4-0.5-1.3-1.5-2.7c-1.3-1.3-2.7-1.9-4-1.9h-0.7c-2,0-3.6,1-4.9,2.9C309.8,877.8,309.6,878.4,309.5,878.8z"/>
	<path class="st45" d="M338.3,870.6c0.9,0,1.5,0.4,1.7,1.2c1-0.8,2.4-1.2,4.2-1.2c2.5,0,4.4,0.9,5.9,2.7c0.5-1,2-1.8,4.4-2.5
		l1.6-0.2c3,0,5.4,1.4,7.1,4.3c0.6,1.2,0.9,2.3,0.9,3.4v9.9c0,0.9-0.6,1.4-1.8,1.7h-0.2c-1.2-0.2-1.8-0.8-1.8-1.8v-9.6
		c0-1.9-1-3.3-3-4l-0.8-0.1H356c-1.6,0-2.8,0.9-3.7,2.8c-0.1,0.4-0.2,0.7-0.2,1v9.9c-0.2,1.2-0.8,1.8-1.8,1.8h-0.1
		c-1.2-0.2-1.8-0.8-1.8-1.7V880c0-2.1-0.3-3.4-0.8-3.9c-0.9-1.2-2-1.7-3.3-1.7h-0.2c-1.9,0-3.2,1-3.9,3c-0.1,0.5-0.2,1.1-0.2,2v8.8
		c0,1-0.6,1.5-1.8,1.7h-0.1c-1,0-1.6-0.6-1.8-1.8v-15.4C336.5,871.3,337.2,870.6,338.3,870.6z"/>
	<path class="st45" d="M376.1,870.4c2.5,0,4.8,1,6.8,2.9c1.9,2,2.9,4.3,2.9,6.9c0,3.6-1.7,6.5-5.2,8.6c-1.5,0.8-3,1.1-4.4,1.1h-0.5
		c-2.6,0-5.1-1.2-7.3-3.7c-1.4-2-2.1-4-2.1-6.1c0-3.2,1.4-5.8,4.2-7.9C372.4,871,374.2,870.4,376.1,870.4z M370.2,880v0.3
		c0,2.3,1.1,4,3.3,5.2c0.8,0.4,1.6,0.6,2.5,0.6h0.4c2.3,0,4.1-1.2,5.3-3.6c0.3-0.7,0.4-1.5,0.4-2.2V880c0-1.9-0.9-3.4-2.6-4.7
		c-1-0.7-2.1-1-3.5-1c-2.5,0-4.4,1.3-5.6,4C370.3,878.8,370.2,879.4,370.2,880z"/>
	<path class="st45" d="M389.6,870.6c0.9,0,1.5,0.4,1.7,1.2c1-0.8,2.4-1.2,4.2-1.2c2.5,0,4.4,0.9,5.9,2.7c0.5-1,2-1.8,4.4-2.5
		l1.6-0.2c3,0,5.4,1.4,7.1,4.3c0.6,1.2,0.9,2.3,0.9,3.4v9.9c0,0.9-0.6,1.4-1.8,1.7h-0.2c-1.2-0.2-1.8-0.8-1.8-1.8v-9.6
		c0-1.9-1-3.3-3-4l-0.8-0.1h-0.6c-1.6,0-2.8,0.9-3.7,2.8c-0.1,0.4-0.2,0.7-0.2,1v9.9c-0.2,1.2-0.8,1.8-1.8,1.8h-0.1
		c-1.2-0.2-1.8-0.8-1.8-1.7V880c0-2.1-0.3-3.4-0.8-3.9c-0.9-1.2-2-1.7-3.3-1.7h-0.2c-1.9,0-3.2,1-3.9,3c-0.1,0.5-0.2,1.1-0.2,2v8.8
		c0,1-0.6,1.5-1.8,1.7h-0.1c-1,0-1.6-0.6-1.8-1.8v-15.4C387.8,871.3,388.4,870.6,389.6,870.6z"/>
	<path class="st45" d="M427.4,870.3c3.8,0,6.7,1.8,8.8,5.4c0.7,1.4,1.1,2.9,1.1,4.6v0.4c-0.2,1.2-0.8,1.8-1.8,1.8h-13.5
		c0.3,1.2,1.3,2.2,2.9,3.1c1,0.4,1.8,0.5,2.7,0.5c1,0,2.1-0.3,3.5-1h0.6c1.1,0.2,1.7,0.8,1.7,1.8v0.2c0,1.4-1.8,2.4-5.4,2.8h-0.5
		c-3.5,0-6.3-1.6-8.5-4.9c-0.9-1.6-1.3-3.2-1.3-4.9c0-3.6,1.7-6.4,5.1-8.6C424.4,870.7,425.9,870.3,427.4,870.3z M421.6,878.8h11.8
		c0-0.4-0.5-1.3-1.5-2.7c-1.3-1.3-2.7-1.9-4-1.9h-0.7c-2,0-3.6,1-4.9,2.9C421.8,877.8,421.6,878.4,421.6,878.8z"/>
	<path class="st45" d="M441.5,870.3c1.2,0.3,1.8,0.9,1.8,1.7v0.3c1.4-1.3,3.4-2,5.9-2c2.7,0,5.1,1.1,7.2,3.4
		c1.5,1.9,2.3,3.9,2.3,5.9v8.6c0,0.9-0.6,1.5-1.8,1.7h-0.2c-1.2-0.2-1.8-0.8-1.8-1.8v-7.6c0-3.1-1.3-5.2-4-6.2
		c-0.7-0.2-1.2-0.3-1.7-0.3h-0.2c-2.2,0-4,1.2-5.2,3.5c-0.3,0.7-0.5,1.8-0.5,3.5v7.1c0,1-0.6,1.5-1.8,1.8h-0.1c-1,0-1.6-0.6-1.8-1.8
		v-15.7C439.6,871,440.3,870.3,441.5,870.3z"/>
	<path class="st45" d="M464.9,863.7h0.3c1.1,0.2,1.7,0.8,1.7,1.6v5.4h2.2l0.6-0.1c0.9,0,1.5,0.6,1.8,1.8c0,0.9-0.5,1.5-1.6,1.9
		l-1.1-0.1h-1.9v9.2c0,1.4,0.4,2.3,1.2,2.6l1.4,0.1h0.7c0.9,0,1.4,0.6,1.7,1.8v0.2c-0.2,1.2-0.8,1.8-1.8,1.8h-1.4
		c-2.3,0-4.1-1.3-5.2-3.8c-0.2-0.6-0.3-1.4-0.3-2.2v-9.6h-0.8l-1.2,0.1c-1.1-0.4-1.6-1-1.6-1.9c0.2-1.2,0.6-1.8,1.2-1.8v-0.1
		l1.2,0.1h1.1v-5.1C463.4,864.4,463.9,863.7,464.9,863.7z"/>
	<path class="st45" d="M477.6,883.9c1.6,0,2.5,0.9,3,2.7v0.5c0,1.1-0.7,2-2,2.6c-0.2,0.1-0.6,0.2-0.9,0.2h-0.1c-1.7,0-2.6-1-3-3
		c0-1.3,0.7-2.3,2.1-2.8C476.9,883.9,477.2,883.9,477.6,883.9z"/>
	<path class="st45" d="M487.7,883.9c1.6,0,2.5,0.9,3,2.7v0.5c0,1.1-0.7,2-2,2.6c-0.2,0.1-0.6,0.2-0.9,0.2h-0.1c-1.7,0-2.6-1-3-3
		c0-1.3,0.7-2.3,2.1-2.8C487,883.9,487.3,883.9,487.7,883.9z"/>
	<path class="st45" d="M497.7,883.9c1.6,0,2.5,0.9,3,2.7v0.5c0,1.1-0.7,2-2,2.6c-0.2,0.1-0.6,0.2-0.9,0.2h-0.1c-1.7,0-2.6-1-3-3
		c0-1.3,0.7-2.3,2.1-2.8C497,883.9,497.3,883.9,497.7,883.9z"/>
</g>
</svg>
