<?xml version="1.0" encoding="utf-8"?>
<!-- Generator: Adobe Illustrator 21.0.0, SVG Export Plug-In . SVG Version: 6.00 Build 0)  -->
<svg version="1.1" id="Layer_1" xmlns="http://www.w3.org/2000/svg" xmlns:xlink="http://www.w3.org/1999/xlink" x="0px" y="0px"
	 viewBox="0 0 315.9 107.9" style="enable-background:new 0 0 315.9 107.9;" xml:space="preserve">
<style type="text/css">
	.st0{fill:#3FA9F5;}
</style>
<g>
	<path class="st0" d="M95.8,54.2C95.6,44,87.2,35.7,76.9,35.7l0,0v36.7c0,10.4,8.4,18.9,18.9,18.9l0,0v-9v-9.5
		c10.3,0,18.6-8.3,18.6-18.6H95.8z"/>
	<circle class="st0" cx="68.2" cy="24.3" r="8.5"/>
	<path class="st0" d="M74.5,35.6c-10.4,0-18.9,8.4-18.9,18.9v4.7h0l0,14.5c0,0.7-0.5,1.3-1.2,1.3c-0.7,0-1.3-0.5-1.3-1.2V63.4v-4.3
		V35.7h0c-10.4,0-18.9,8.4-18.9,18.9v4.6v1.1v13.4c0,0.7-0.5,1.3-1.2,1.3c-0.7,0-1.3-0.5-1.3-1.2V59.2h0v-4.6
		c0-10.4-8.4-18.9-18.9-18.9v36.7c0,10.4,8.4,18.8,18.8,18.9c0.4,0,0.8,0.1,1.3,0.1c0.4,0,0.8,0,1.3-0.1c4.4,0,8.4-1.5,11.6-4
		c2.5,2.4,5.9,3.9,9.6,3.9h0c10.4,0,18.9-8.4,18.9-18.9L74.5,35.6L74.5,35.6L74.5,35.6z"/>
</g>
<g>
	<path class="st0" d="M140.8,78.1l-7-19.9c-0.1-0.4-0.3-1-0.3-1.5c0-1.4,1.1-2.8,2.9-2.8c1.5,0,2.5,1,2.9,2.4l5,15.8l5.1-15.8
		c0.4-1.4,1.5-2.4,3.1-2.4h0.3c1.5,0,2.6,1,3.1,2.4l5.1,15.8l5.1-15.9c0.4-1.3,1.3-2.3,2.9-2.3c1.6,0,2.8,1.3,2.8,2.8
		c0,0.4-0.1,1-0.2,1.3l-7.1,20.1c-0.6,1.8-1.9,2.7-3.3,2.7H161c-1.5,0-2.7-0.8-3.3-2.6l-5.1-15.5l-5.1,15.5
		c-0.5,1.7-1.8,2.6-3.2,2.6h-0.2C142.6,80.7,141.4,79.9,140.8,78.1z"/>
	<path class="st0" d="M175.3,67.4L175.3,67.4c0-7.6,5.9-13.8,14-13.8c8,0,13.9,6.1,13.9,13.6v0.1c0,7.4-5.9,13.6-14,13.6
		C181.2,80.9,175.3,74.8,175.3,67.4z M197.2,67.4L197.2,67.4c0-4.7-3.3-8.5-8-8.5c-4.8,0-7.9,3.8-7.9,8.3v0.1c0,4.6,3.3,8.4,8,8.4
		C194.1,75.7,197.2,71.9,197.2,67.4z"/>
	<path class="st0" d="M209.2,56.9c0-1.7,1.3-3,3-3c1.7,0,3,1.3,3,3v2.7c1.4-3.3,4-5.7,6.6-5.7c1.9,0,3,1.2,3,3c0,1.6-1,2.6-2.4,2.9
		c-4.3,0.7-7.2,4-7.2,10.2v7.7c0,1.6-1.3,3-3,3c-1.6,0-3-1.3-3-3V56.9z"/>
	<path class="st0" d="M229.7,46.9c0-1.6,1.3-3,3-3s3,1.3,3,3v19.3l11.2-11c0.8-0.8,1.5-1.3,2.6-1.3c1.6,0,2.6,1.3,2.6,2.7
		c0,1-0.5,1.7-1.3,2.5l-6.9,6.4l7.9,10.3c0.5,0.7,0.8,1.3,0.8,2c0,1.6-1.3,2.7-2.8,2.7c-1.2,0-1.9-0.4-2.6-1.3l-7.5-9.9l-4,3.8v4.6
		c0,1.7-1.3,3-3,3c-1.6,0-3-1.3-3-3V46.9z"/>
	<path class="st0" d="M273.1,47.2c0-1.8,1.5-2.9,3.4-2.9c1.9,0,3.4,1.1,3.4,2.9v0.3c0,1.8-1.5,3-3.4,3c-1.9,0-3.4-1.2-3.4-3V47.2z
		 M273.5,56.9c0-1.7,1.3-3,3-3c1.7,0,3,1.3,3,3v20.7c0,1.7-1.3,3-3,3c-1.6,0-3-1.3-3-3V56.9z"/>
	<path class="st0" d="M288.6,73.1V59.3h-1c-1.4,0-2.6-1.1-2.6-2.6s1.1-2.6,2.6-2.6h1v-4.5c0-1.6,1.3-3,3-3c1.6,0,3,1.3,3,3v4.5h4.7
		c1.4,0,2.6,1.1,2.6,2.6s-1.2,2.6-2.6,2.6h-4.7v12.8c0,2.3,1.2,3.3,3.2,3.3c0.7,0,1.3-0.1,1.5-0.1c1.3,0,2.5,1.1,2.5,2.5
		c0,1.1-0.7,2-1.6,2.3c-1.3,0.4-2.5,0.7-4.1,0.7C291.7,80.7,288.6,78.8,288.6,73.1z"/>
</g>
</svg>
