<?xml version="1.0" encoding="utf-8"?>
<!-- Generator: Adobe Illustrator 21.0.0, SVG Export Plug-In . SVG Version: 6.00 Build 0)  -->
<svg version="1.1" id="Layer_1" xmlns="http://www.w3.org/2000/svg" xmlns:xlink="http://www.w3.org/1999/xlink" x="0px" y="0px"
	 viewBox="0 0 200 150.6" style="enable-background:new 0 0 200 150.6;" xml:space="preserve">
<style type="text/css">
	.st0{fill:#3FA9F5;}
</style>
<g>
	<path class="st0" d="M161.6,76.1c-0.4-19.6-16.4-35.4-36.2-35.4l0,0v70.4c0,20,16.2,36.2,36.2,36.2l0,0v-17.2v-18.2
		c19.7,0,35.7-16,35.7-35.7H161.6z"/>
	<circle class="st0" cx="106.8" cy="18.7" r="16.4"/>
	<path class="st0" d="M120.7,40.4c-20,0-36.2,16.2-36.2,36.2v9.1h0l0,27.8c0,1.3-1,2.4-2.2,2.5c-1.4,0.1-2.5-1-2.5-2.4V93.8v-8.2
		v-45h0c-20,0-36.2,16.2-36.2,36.2v8.8v2.2l0,25.7c0,1.3-1,2.4-2.2,2.5c-1.4,0.1-2.5-1-2.5-2.4v-28h0v-8.8c0-20-16.2-36.2-36.2-36.2
		v70.4c0,19.9,16.1,36.1,36.1,36.2c0.8,0.1,1.6,0.1,2.4,0.1c0.8,0,1.6,0,2.4-0.1c8.4,0,16.2-2.9,22.3-7.8c4.8,4.6,11.3,7.4,18.5,7.4
		h0c20,0,36.2-16.2,36.2-36.2L120.7,40.4C120.7,40.4,120.7,40.4,120.7,40.4L120.7,40.4z"/>
</g>
</svg>
