<?xml version="1.0" encoding="utf-8"?>
<!-- Generator: Adobe Illustrator 21.0.0, SVG Export Plug-In . SVG Version: 6.00 Build 0)  -->
<svg version="1.1" id="Layer_1" xmlns="http://www.w3.org/2000/svg" xmlns:xlink="http://www.w3.org/1999/xlink" x="0px" y="0px"
	 viewBox="0 0 200 200" style="enable-background:new 0 0 200 200;" xml:space="preserve">
<style type="text/css">
	.st0{fill:#3FA9F5;}
</style>
<g>
	<g>
		<path class="st0" d="M131.8,72.3c-0.2-10.2-8.6-18.5-18.8-18.5l0,0v36.7c0,10.4,8.4,18.9,18.9,18.9l0,0v-9v-9.5
			c10.3,0,18.6-8.3,18.6-18.6H131.8z"/>
		<circle class="st0" cx="104.2" cy="42.3" r="8.5"/>
		<path class="st0" d="M110.5,53.6c-10.4,0-18.9,8.4-18.9,18.9v4.7h0v14.5c0,0.7-0.5,1.3-1.2,1.3c-0.7,0-1.3-0.5-1.3-1.2V81.5v-4.3
			V53.8h0c-10.4,0-18.9,8.4-18.9,18.9v4.6v1.1v13.4c0,0.7-0.5,1.3-1.2,1.3c-0.7,0-1.3-0.5-1.3-1.2V77.2h0v-4.6
			c0-10.4-8.4-18.9-18.9-18.9v36.7c0,10.4,8.4,18.8,18.8,18.9c0.4,0,0.8,0.1,1.3,0.1c0.4,0,0.8,0,1.3-0.1c4.4,0,8.4-1.5,11.6-4
			c2.5,2.4,5.9,3.9,9.6,3.9h0c10.4,0,18.9-8.4,18.9-18.9L110.5,53.6L110.5,53.6L110.5,53.6z"/>
	</g>
	<g>
		<path class="st0" d="M22.8,162.1l-7-19.9c-0.1-0.4-0.3-1-0.3-1.5c0-1.4,1.1-2.8,2.9-2.8c1.5,0,2.5,1,2.9,2.4l5,15.8l5.1-15.8
			c0.4-1.4,1.5-2.4,3.1-2.4h0.3c1.5,0,2.6,1,3.1,2.4l5.1,15.8l5.1-15.9c0.4-1.3,1.3-2.3,2.9-2.3c1.6,0,2.8,1.3,2.8,2.8
			c0,0.4-0.1,1-0.2,1.3l-7.1,20.1c-0.6,1.8-1.9,2.7-3.3,2.7h-0.2c-1.5,0-2.7-0.8-3.3-2.6l-5.1-15.5l-5.1,15.5
			c-0.5,1.7-1.8,2.6-3.2,2.6h-0.2C24.7,164.8,23.4,164,22.8,162.1z"/>
		<path class="st0" d="M57.3,151.4L57.3,151.4c0-7.6,5.9-13.8,14-13.8c8,0,13.9,6.1,13.9,13.6v0.1c0,7.4-5.9,13.6-14,13.6
			C63.2,165,57.3,158.9,57.3,151.4z M79.2,151.4L79.2,151.4c0-4.7-3.3-8.5-8-8.5c-4.8,0-7.9,3.8-7.9,8.3v0.1c0,4.6,3.3,8.4,8,8.4
			C76.1,159.7,79.2,156,79.2,151.4z"/>
		<path class="st0" d="M91.3,141c0-1.7,1.3-3,3-3c1.7,0,3,1.3,3,3v2.7c1.4-3.3,4-5.7,6.6-5.7c1.9,0,3,1.2,3,3c0,1.6-1,2.6-2.4,2.9
			c-4.3,0.7-7.2,4-7.2,10.2v7.7c0,1.6-1.3,3-3,3c-1.6,0-3-1.3-3-3V141z"/>
		<path class="st0" d="M111.7,131c0-1.6,1.3-3,3-3c1.7,0,3,1.3,3,3v19.3l11.2-11c0.8-0.8,1.5-1.3,2.6-1.3c1.6,0,2.6,1.3,2.6,2.7
			c0,1-0.5,1.7-1.3,2.5l-6.9,6.4l7.9,10.3c0.5,0.7,0.8,1.3,0.8,2c0,1.6-1.3,2.7-2.8,2.7c-1.2,0-1.9-0.4-2.6-1.3l-7.5-9.9l-4,3.8v4.6
			c0,1.7-1.3,3-3,3c-1.6,0-3-1.3-3-3V131z"/>
		<path class="st0" d="M155.1,131.2c0-1.8,1.5-2.9,3.4-2.9c1.9,0,3.4,1.1,3.4,2.9v0.3c0,1.8-1.5,3-3.4,3c-1.9,0-3.4-1.2-3.4-3V131.2
			z M155.6,141c0-1.7,1.3-3,3-3c1.7,0,3,1.3,3,3v20.7c0,1.7-1.3,3-3,3c-1.6,0-3-1.3-3-3V141z"/>
		<path class="st0" d="M170.6,157.1v-13.8h-1c-1.4,0-2.6-1.1-2.6-2.6c0-1.4,1.1-2.6,2.6-2.6h1v-4.5c0-1.6,1.3-3,3-3c1.6,0,3,1.3,3,3
			v4.5h4.7c1.4,0,2.6,1.1,2.6,2.6c0,1.4-1.2,2.6-2.6,2.6h-4.7v12.8c0,2.3,1.2,3.3,3.2,3.3c0.7,0,1.3-0.1,1.5-0.1
			c1.3,0,2.5,1.1,2.5,2.5c0,1.1-0.7,2-1.6,2.3c-1.3,0.4-2.5,0.7-4.1,0.7C173.7,164.8,170.6,162.9,170.6,157.1z"/>
	</g>
</g>
</svg>
